<mxfile host="app.diagrams.net" agent="Mozilla/5.0 (Windows NT 10.0; Win64; x64) AppleWebKit/537.36 (KHTML, like Gecko) Chrome/130.0.0.0 Safari/537.36" version="24.8.4">
  <diagram name="Sida-1" id="YjGYsyqWT9ZH89FKcyrc">
    <mxGraphModel dx="1687" dy="2037" grid="1" gridSize="10" guides="1" tooltips="1" connect="1" arrows="1" fold="1" page="1" pageScale="1" pageWidth="827" pageHeight="1169" background="#FDE7D3" math="0" shadow="0">
      <root>
        <mxCell id="0" />
        <mxCell id="1" parent="0" />
        <mxCell id="9k6aByeFqtZ1_OdOQNtN-1" value=".NET&lt;div&gt;Plattform&lt;/div&gt;" style="rounded=0;whiteSpace=wrap;html=1;fontStyle=1" vertex="1" parent="1">
          <mxGeometry x="354" y="-1060" width="120" height="60" as="geometry" />
        </mxCell>
        <mxCell id="9k6aByeFqtZ1_OdOQNtN-2" value="Python API&lt;div&gt;&lt;span style=&quot;background-color: initial;&quot;&gt;GPT4All&lt;/span&gt;&lt;/div&gt;" style="rounded=0;whiteSpace=wrap;html=1;fontStyle=1" vertex="1" parent="1">
          <mxGeometry x="570" y="-1060" width="120" height="60" as="geometry" />
        </mxCell>
        <mxCell id="9k6aByeFqtZ1_OdOQNtN-3" value="Kundresa" style="rounded=0;whiteSpace=wrap;html=1;fontStyle=1" vertex="1" parent="1">
          <mxGeometry x="140" y="-1060" width="120" height="60" as="geometry" />
        </mxCell>
        <mxCell id="9k6aByeFqtZ1_OdOQNtN-12" value="" style="edgeStyle=orthogonalEdgeStyle;rounded=0;orthogonalLoop=1;jettySize=auto;html=1;" edge="1" parent="1" source="9k6aByeFqtZ1_OdOQNtN-6" target="9k6aByeFqtZ1_OdOQNtN-7">
          <mxGeometry relative="1" as="geometry" />
        </mxCell>
        <mxCell id="9k6aByeFqtZ1_OdOQNtN-6" value="Ser graf över indexområden och ser status" style="rounded=0;whiteSpace=wrap;html=1;" vertex="1" parent="1">
          <mxGeometry x="140" y="-990" width="120" height="60" as="geometry" />
        </mxCell>
        <mxCell id="9k6aByeFqtZ1_OdOQNtN-11" value="" style="edgeStyle=orthogonalEdgeStyle;rounded=0;orthogonalLoop=1;jettySize=auto;html=1;" edge="1" parent="1" source="9k6aByeFqtZ1_OdOQNtN-7" target="9k6aByeFqtZ1_OdOQNtN-8">
          <mxGeometry relative="1" as="geometry" />
        </mxCell>
        <mxCell id="9k6aByeFqtZ1_OdOQNtN-7" value="Får information om att X Indexområden är behov av åtgärder och Y Indexområde är högsta prio." style="rounded=0;whiteSpace=wrap;html=1;" vertex="1" parent="1">
          <mxGeometry x="140" y="-910" width="120" height="120" as="geometry" />
        </mxCell>
        <mxCell id="9k6aByeFqtZ1_OdOQNtN-10" value="" style="edgeStyle=orthogonalEdgeStyle;rounded=0;orthogonalLoop=1;jettySize=auto;html=1;" edge="1" parent="1" source="9k6aByeFqtZ1_OdOQNtN-8" target="9k6aByeFqtZ1_OdOQNtN-9">
          <mxGeometry relative="1" as="geometry" />
        </mxCell>
        <mxCell id="9k6aByeFqtZ1_OdOQNtN-8" value="Väljer att få mer information om Y Indexområde" style="rounded=0;whiteSpace=wrap;html=1;" vertex="1" parent="1">
          <mxGeometry x="140" y="-760" width="120" height="90" as="geometry" />
        </mxCell>
        <mxCell id="9k6aByeFqtZ1_OdOQNtN-14" value="" style="edgeStyle=orthogonalEdgeStyle;rounded=0;orthogonalLoop=1;jettySize=auto;html=1;" edge="1" parent="1" source="9k6aByeFqtZ1_OdOQNtN-9" target="9k6aByeFqtZ1_OdOQNtN-13">
          <mxGeometry relative="1" as="geometry" />
        </mxCell>
        <mxCell id="9k6aByeFqtZ1_OdOQNtN-9" value="Får aktivitetsförslag" style="rounded=0;whiteSpace=wrap;html=1;" vertex="1" parent="1">
          <mxGeometry x="140" y="-640" width="120" height="50" as="geometry" />
        </mxCell>
        <mxCell id="9k6aByeFqtZ1_OdOQNtN-23" value="" style="edgeStyle=orthogonalEdgeStyle;rounded=0;orthogonalLoop=1;jettySize=auto;html=1;" edge="1" parent="1" source="9k6aByeFqtZ1_OdOQNtN-13" target="9k6aByeFqtZ1_OdOQNtN-22">
          <mxGeometry relative="1" as="geometry" />
        </mxCell>
        <mxCell id="9k6aByeFqtZ1_OdOQNtN-13" value="Väljer att påbörja en aktivitet från en av de föreslagna aktiviteterna." style="rounded=0;whiteSpace=wrap;html=1;" vertex="1" parent="1">
          <mxGeometry x="140" y="-430" width="120" height="80" as="geometry" />
        </mxCell>
        <mxCell id="9k6aByeFqtZ1_OdOQNtN-26" style="edgeStyle=orthogonalEdgeStyle;rounded=0;orthogonalLoop=1;jettySize=auto;html=1;" edge="1" parent="1" source="9k6aByeFqtZ1_OdOQNtN-22" target="9k6aByeFqtZ1_OdOQNtN-24">
          <mxGeometry relative="1" as="geometry" />
        </mxCell>
        <mxCell id="9k6aByeFqtZ1_OdOQNtN-22" value="Kunden genomför aktiviteten inom sitt företag/avdelning" style="rounded=0;whiteSpace=wrap;html=1;" vertex="1" parent="1">
          <mxGeometry x="140" y="-330" width="120" height="80" as="geometry" />
        </mxCell>
        <mxCell id="9k6aByeFqtZ1_OdOQNtN-28" value="" style="edgeStyle=orthogonalEdgeStyle;rounded=0;orthogonalLoop=1;jettySize=auto;html=1;" edge="1" parent="1" source="9k6aByeFqtZ1_OdOQNtN-24" target="9k6aByeFqtZ1_OdOQNtN-27">
          <mxGeometry relative="1" as="geometry" />
        </mxCell>
        <mxCell id="9k6aByeFqtZ1_OdOQNtN-24" value="Kunden anmäler aktivitet klart." style="rounded=0;whiteSpace=wrap;html=1;" vertex="1" parent="1">
          <mxGeometry x="140" y="-230" width="120" height="80" as="geometry" />
        </mxCell>
        <mxCell id="9k6aByeFqtZ1_OdOQNtN-30" value="" style="edgeStyle=orthogonalEdgeStyle;rounded=0;orthogonalLoop=1;jettySize=auto;html=1;" edge="1" parent="1" source="9k6aByeFqtZ1_OdOQNtN-27" target="9k6aByeFqtZ1_OdOQNtN-29">
          <mxGeometry relative="1" as="geometry" />
        </mxCell>
        <mxCell id="9k6aByeFqtZ1_OdOQNtN-27" value="En undersökning skickas ut till medarbetare för att utvärdera aktivitetens påverkan" style="rounded=0;whiteSpace=wrap;html=1;" vertex="1" parent="1">
          <mxGeometry x="140" y="-130" width="120" height="80" as="geometry" />
        </mxCell>
        <mxCell id="9k6aByeFqtZ1_OdOQNtN-34" value="" style="edgeStyle=orthogonalEdgeStyle;rounded=0;orthogonalLoop=1;jettySize=auto;html=1;entryX=0;entryY=0.5;entryDx=0;entryDy=0;exitX=0.5;exitY=1;exitDx=0;exitDy=0;" edge="1" parent="1" source="9k6aByeFqtZ1_OdOQNtN-29" target="9k6aByeFqtZ1_OdOQNtN-6">
          <mxGeometry relative="1" as="geometry">
            <mxPoint x="110" y="115" as="sourcePoint" />
            <mxPoint x="50" y="-690" as="targetPoint" />
            <Array as="points">
              <mxPoint x="200" y="80" />
              <mxPoint x="80" y="80" />
              <mxPoint x="80" y="-960" />
            </Array>
          </mxGeometry>
        </mxCell>
        <mxCell id="9k6aByeFqtZ1_OdOQNtN-29" value="Kort beskrivning om förbättring från föregående aktivitet printas ut för kunden.&amp;nbsp;" style="rounded=0;whiteSpace=wrap;html=1;" vertex="1" parent="1">
          <mxGeometry x="140" y="-30" width="120" height="80" as="geometry" />
        </mxCell>
        <mxCell id="9k6aByeFqtZ1_OdOQNtN-40" value="" style="edgeStyle=orthogonalEdgeStyle;rounded=0;orthogonalLoop=1;jettySize=auto;html=1;" edge="1" parent="1" source="9k6aByeFqtZ1_OdOQNtN-35" target="9k6aByeFqtZ1_OdOQNtN-36">
          <mxGeometry relative="1" as="geometry" />
        </mxCell>
        <mxCell id="9k6aByeFqtZ1_OdOQNtN-35" value="Skriv ut graf" style="rounded=0;whiteSpace=wrap;html=1;" vertex="1" parent="1">
          <mxGeometry x="354" y="-990" width="120" height="60" as="geometry" />
        </mxCell>
        <mxCell id="9k6aByeFqtZ1_OdOQNtN-42" value="" style="edgeStyle=orthogonalEdgeStyle;rounded=0;orthogonalLoop=1;jettySize=auto;html=1;" edge="1" parent="1" source="9k6aByeFqtZ1_OdOQNtN-36" target="9k6aByeFqtZ1_OdOQNtN-41">
          <mxGeometry relative="1" as="geometry" />
        </mxCell>
        <mxCell id="9k6aByeFqtZ1_OdOQNtN-36" value="Skriv ut behov av åtgärder text." style="rounded=0;whiteSpace=wrap;html=1;" vertex="1" parent="1">
          <mxGeometry x="354" y="-910" width="120" height="120" as="geometry" />
        </mxCell>
        <mxCell id="9k6aByeFqtZ1_OdOQNtN-44" value="" style="edgeStyle=orthogonalEdgeStyle;rounded=0;orthogonalLoop=1;jettySize=auto;html=1;" edge="1" parent="1" source="9k6aByeFqtZ1_OdOQNtN-41" target="9k6aByeFqtZ1_OdOQNtN-43">
          <mxGeometry relative="1" as="geometry" />
        </mxCell>
        <mxCell id="9k6aByeFqtZ1_OdOQNtN-41" value="Skriv ut information om Y Indexområde och dess frågor" style="rounded=0;whiteSpace=wrap;html=1;" vertex="1" parent="1">
          <mxGeometry x="354" y="-760" width="120" height="90" as="geometry" />
        </mxCell>
        <mxCell id="9k6aByeFqtZ1_OdOQNtN-47" style="edgeStyle=orthogonalEdgeStyle;rounded=0;orthogonalLoop=1;jettySize=auto;html=1;entryX=0.5;entryY=0;entryDx=0;entryDy=0;" edge="1" parent="1" source="9k6aByeFqtZ1_OdOQNtN-43" target="9k6aByeFqtZ1_OdOQNtN-46">
          <mxGeometry relative="1" as="geometry" />
        </mxCell>
        <mxCell id="9k6aByeFqtZ1_OdOQNtN-43" value="Skicka API request till Python API för att få aktivitetsförslag" style="rounded=0;whiteSpace=wrap;html=1;" vertex="1" parent="1">
          <mxGeometry x="354" y="-640" width="120" height="70" as="geometry" />
        </mxCell>
        <mxCell id="9k6aByeFqtZ1_OdOQNtN-51" value="" style="edgeStyle=orthogonalEdgeStyle;rounded=0;orthogonalLoop=1;jettySize=auto;html=1;" edge="1" parent="1" source="9k6aByeFqtZ1_OdOQNtN-45" target="9k6aByeFqtZ1_OdOQNtN-50">
          <mxGeometry relative="1" as="geometry" />
        </mxCell>
        <mxCell id="9k6aByeFqtZ1_OdOQNtN-45" value="Skriv ut aktivitetsförlag" style="rounded=0;whiteSpace=wrap;html=1;" vertex="1" parent="1">
          <mxGeometry x="354" y="-530" width="120" height="70" as="geometry" />
        </mxCell>
        <mxCell id="9k6aByeFqtZ1_OdOQNtN-49" style="edgeStyle=orthogonalEdgeStyle;rounded=0;orthogonalLoop=1;jettySize=auto;html=1;entryX=1;entryY=0.5;entryDx=0;entryDy=0;" edge="1" parent="1" source="9k6aByeFqtZ1_OdOQNtN-46" target="9k6aByeFqtZ1_OdOQNtN-45">
          <mxGeometry relative="1" as="geometry">
            <Array as="points">
              <mxPoint x="630" y="-495" />
            </Array>
          </mxGeometry>
        </mxCell>
        <mxCell id="9k6aByeFqtZ1_OdOQNtN-46" value="Ta emot API request och prompta ut aktivitetsförslag" style="rounded=0;whiteSpace=wrap;html=1;" vertex="1" parent="1">
          <mxGeometry x="570" y="-584" width="120" height="70" as="geometry" />
        </mxCell>
        <mxCell id="9k6aByeFqtZ1_OdOQNtN-53" value="" style="edgeStyle=orthogonalEdgeStyle;rounded=0;orthogonalLoop=1;jettySize=auto;html=1;" edge="1" parent="1" source="9k6aByeFqtZ1_OdOQNtN-50" target="9k6aByeFqtZ1_OdOQNtN-52">
          <mxGeometry relative="1" as="geometry" />
        </mxCell>
        <mxCell id="9k6aByeFqtZ1_OdOQNtN-50" value="Spara att en aktivitet har påbörjats och visa för kund vilken aktivitet som är aktiv just nu." style="rounded=0;whiteSpace=wrap;html=1;" vertex="1" parent="1">
          <mxGeometry x="354" y="-430" width="120" height="80" as="geometry" />
        </mxCell>
        <mxCell id="9k6aByeFqtZ1_OdOQNtN-55" value="" style="edgeStyle=orthogonalEdgeStyle;rounded=0;orthogonalLoop=1;jettySize=auto;html=1;" edge="1" parent="1" source="9k6aByeFqtZ1_OdOQNtN-52" target="9k6aByeFqtZ1_OdOQNtN-54">
          <mxGeometry relative="1" as="geometry" />
        </mxCell>
        <mxCell id="9k6aByeFqtZ1_OdOQNtN-52" value="Få in att kunden har genomfört en aktivitet" style="rounded=0;whiteSpace=wrap;html=1;" vertex="1" parent="1">
          <mxGeometry x="354" y="-230" width="120" height="80" as="geometry" />
        </mxCell>
        <mxCell id="9k6aByeFqtZ1_OdOQNtN-57" value="" style="edgeStyle=orthogonalEdgeStyle;rounded=0;orthogonalLoop=1;jettySize=auto;html=1;" edge="1" parent="1" source="9k6aByeFqtZ1_OdOQNtN-54" target="9k6aByeFqtZ1_OdOQNtN-56">
          <mxGeometry relative="1" as="geometry" />
        </mxCell>
        <mxCell id="9k6aByeFqtZ1_OdOQNtN-54" value="Skicka ut en undersökning till medarbetare" style="rounded=0;whiteSpace=wrap;html=1;" vertex="1" parent="1">
          <mxGeometry x="354" y="-130" width="120" height="80" as="geometry" />
        </mxCell>
        <mxCell id="9k6aByeFqtZ1_OdOQNtN-56" value="Skriv ut en ny graf som förklarar hur aktivitet har förbättrat eller försämrat QWC." style="rounded=0;whiteSpace=wrap;html=1;" vertex="1" parent="1">
          <mxGeometry x="354" y="-30" width="120" height="80" as="geometry" />
        </mxCell>
        <mxCell id="9k6aByeFqtZ1_OdOQNtN-58" value="" style="endArrow=none;dashed=1;html=1;dashPattern=1 3;strokeWidth=2;rounded=0;" edge="1" parent="1">
          <mxGeometry width="50" height="50" relative="1" as="geometry">
            <mxPoint x="80" y="-920" as="sourcePoint" />
            <mxPoint x="710" y="-920" as="targetPoint" />
          </mxGeometry>
        </mxCell>
        <mxCell id="9k6aByeFqtZ1_OdOQNtN-59" value="" style="endArrow=none;dashed=1;html=1;dashPattern=1 3;strokeWidth=2;rounded=0;" edge="1" parent="1">
          <mxGeometry width="50" height="50" relative="1" as="geometry">
            <mxPoint x="80" y="-780" as="sourcePoint" />
            <mxPoint x="710" y="-780" as="targetPoint" />
          </mxGeometry>
        </mxCell>
        <mxCell id="9k6aByeFqtZ1_OdOQNtN-60" value="" style="endArrow=none;dashed=1;html=1;dashPattern=1 3;strokeWidth=2;rounded=0;" edge="1" parent="1">
          <mxGeometry width="50" height="50" relative="1" as="geometry">
            <mxPoint x="80" y="-650" as="sourcePoint" />
            <mxPoint x="710" y="-650" as="targetPoint" />
          </mxGeometry>
        </mxCell>
        <mxCell id="9k6aByeFqtZ1_OdOQNtN-61" value="" style="endArrow=none;dashed=1;html=1;dashPattern=1 3;strokeWidth=2;rounded=0;" edge="1" parent="1">
          <mxGeometry width="50" height="50" relative="1" as="geometry">
            <mxPoint x="80" y="-450" as="sourcePoint" />
            <mxPoint x="710" y="-450" as="targetPoint" />
          </mxGeometry>
        </mxCell>
        <mxCell id="9k6aByeFqtZ1_OdOQNtN-62" value="" style="endArrow=none;dashed=1;html=1;dashPattern=1 3;strokeWidth=2;rounded=0;" edge="1" parent="1">
          <mxGeometry width="50" height="50" relative="1" as="geometry">
            <mxPoint x="80" y="-340" as="sourcePoint" />
            <mxPoint x="710" y="-340" as="targetPoint" />
          </mxGeometry>
        </mxCell>
        <mxCell id="9k6aByeFqtZ1_OdOQNtN-63" value="" style="endArrow=none;dashed=1;html=1;dashPattern=1 3;strokeWidth=2;rounded=0;" edge="1" parent="1">
          <mxGeometry width="50" height="50" relative="1" as="geometry">
            <mxPoint x="80" y="-240" as="sourcePoint" />
            <mxPoint x="710" y="-240" as="targetPoint" />
          </mxGeometry>
        </mxCell>
        <mxCell id="9k6aByeFqtZ1_OdOQNtN-64" value="" style="endArrow=none;dashed=1;html=1;dashPattern=1 3;strokeWidth=2;rounded=0;" edge="1" parent="1">
          <mxGeometry width="50" height="50" relative="1" as="geometry">
            <mxPoint x="80" y="-140" as="sourcePoint" />
            <mxPoint x="710" y="-140" as="targetPoint" />
          </mxGeometry>
        </mxCell>
        <mxCell id="9k6aByeFqtZ1_OdOQNtN-65" value="" style="endArrow=none;dashed=1;html=1;dashPattern=1 3;strokeWidth=2;rounded=0;" edge="1" parent="1">
          <mxGeometry width="50" height="50" relative="1" as="geometry">
            <mxPoint x="80" y="-40" as="sourcePoint" />
            <mxPoint x="710" y="-40" as="targetPoint" />
          </mxGeometry>
        </mxCell>
      </root>
    </mxGraphModel>
  </diagram>
</mxfile>
